<?xml version="1.0" encoding="UTF-8"?>
<svg width="830" height="270" version="1.1" viewBox="0 0 830 270" xmlns="http://www.w3.org/2000/svg" xmlns:cc="http://creativecommons.org/ns#" xmlns:dc="http://purl.org/dc/elements/1.1/" xmlns:rdf="http://www.w3.org/1999/02/22-rdf-syntax-ns#">
 <metadata>
  <rdf:RDF>
   <cc:Work rdf:about="">
    <dc:format>image/svg+xml</dc:format>
    <dc:type rdf:resource="http://purl.org/dc/dcmitype/StillImage"/>
    <dc:title/>
   </cc:Work>
  </rdf:RDF>
 </metadata>
 <g transform="translate(-437.28 -467.9)">
  <path d="m476.36 664.59s0.90867 0.15165 2.6535 0.42537c10.936 1.7138 28.403 4.1688 65.686 6.3646 25.668 1.5101 53.415 2.4366 86.859 2.8872 32.284 0.43477 65.484 0.33726 100.32-0.19902 46.125-0.71014 91.952-0.96789 132.53-1.1222 55.153-0.20981 96.35-0.13991 117.71-0.11727 9.1913 0.01 33.158 0.0213 42.349 0.031 66.268 0.0524 103.55 0.20394 144.99 0.75425 10.806 0.1435 17.212 0.255 17.212 0.255 12.112 0.0472 24.229 0.15946 36.353 0.40099 6.5746 0.13093 13.16 0.30048 19.754 0.5706 4.7151 0.19226 9.4682 0.42421 14.251 0.8433 0.5777 0.0437 1.2755 0.13139 2.083 0.31267 0.3082-0.0516 1.115 0.27594 2.3438 1.095 0.4917 0.27748 0.9743 1.0147 1.4212 2.2132 0.2133 1.2472 0.1088 2.2221-0.2996 2.9085-0.04 0.0593-0.079 0.11731-0.1172 0.17399-0.8669 1.273-1.5012 1.8882-1.7915 1.8784-1.2704 0.78241-2.3707 1.2324-3.1869 1.5255-1.3548 0.53672-2.6816 1.009-3.9556 1.4491-3.1662 1.0965-6.5346 2.1501-8.9745 2.749-1.487 0.36858-2.8239 0.59825-3.8764 0.6501-1.458 0.16302-3.0501-0.5457-3.9439-1.5883-1.1414-1.3314-0.5871-3.0155 1.2194-4.5488 1.0241-0.88919 2.3798-1.6528 3.9388-2.3251 2.7358-1.1829 5.8402-2.007 9.1888-2.9033 1.2778-0.34397 2.5179-0.67088 3.6899-1.0415 0.883-0.31709 1.4723-0.44935 1.7-0.61389 0.077-0.24101-0.1699 0.12247-0.8311 1.0207-0.029 0.0399-0.06 0.081-0.091 0.12304-0.3463 0.56012-0.4225 1.3883-0.2443 2.4991 0.4077 1.0472 0.784 1.6586 1.1556 1.8363 0.7888 0.45296 1.0149 0.63528 0.7681 0.44494-0.212-0.0735-0.5597-0.12102-1.0268-0.1904-4.5632-0.59246-9.1917-1.0087-13.859-1.394-6.5056-0.53631-13.032-0.97417-19.572-1.375-12.058-0.73897-24.132-1.3496-36.215-1.8957 0 0-6.3933-0.21262-17.188-0.51493-36.904-1.0334-83.135-1.9308-144.9-2.4365-15.019-0.12295-29.306-0.20382-42.341-0.24071-20.831-0.0589-63.076-0.084-117.69 0.2085-40.565 0.21724-86.393 0.55992-132.49 1.3618-34.86 0.60636-68.084 0.77382-100.41 0.40864-33.481-0.37806-61.281-1.2443-87.015-2.699-37.351-2.109-55.03-4.5512-66.036-6.2472-1.7606-0.27103-2.6796-0.42204-2.6796-0.42204-7.7421-1.2654-14.266-2.7326-20.068-4.5247-9.0831-2.7833-14.431-6.5224-14.113-7.0442 0.31834-0.52174 5.759 2.0411 14.882 4.2246 5.9692 1.4124 12.018 2.5571 19.871 3.8282zm592.17-18.629s0.1026-0.16903 0.2936-0.49357c0.5041-0.85627 1.5298-2.6285 2.9016-5.3286 2.5332-4.9854 5.4038-11.424 8.4817-20.189 4.6747-13.311 8.0459-26.807 10.494-40.095 2.2336-12.125 3.3583-22.488 3.4764-23.63 0.098-0.94899 0.8639-8.4433 1.4318-18.782 0.6212-11.353 1.747-28.099 6.1039-43.924 1.2037-4.3788 2.6796-8.7733 4.8759-12.861 1.4307-2.6933 3.2281-5.3356 5.8358-7.1482 0.9778-0.67477 2.0887-1.19 3.288-1.4383 1.1416-0.22949 2.3169-0.19252 3.4275 0.0805 2.7329 0.70291 4.921 2.528 6.6102 4.443 6.499 7.2626 9.6046 17.226 11.681 24.063 1.7977 5.8317 2.5571 10.616 2.8436 14.375 0.3415 4.4802 0.04 8.0229-0.3467 10.55-0.4898 3.1473-1.2619 5.4706-1.5994 6.4174-0.3927 1.1014-0.6646 1.6486-0.8098 1.9307-0.3494 0.67863-0.301 1.1046-2.7528 5.6252-0.4864 0.89663-1.5302 2.7668-3.1174 4.9922-3.2277 4.5223-7.7003 9.4104-15.099 15.435-5.9753 4.8703-11.867 8.9722-19.24 14.168-4.1584 2.937-8.6607 5.8446-12.295 9.4243-1.0176 1.0182-1.9566 2.0483-2.4721 3.2114v1e-5c-0.379 0.8344-0.5179 1.7822-0.3172 2.6227v1e-5c0.2157 1.0762 0.8989 2.1064 1.6713 3.127 1.1556 1.4868 2.5587 2.8254 3.9969 4.1473 4.6776 4.2856 10.331 8.7458 14.834 12.526 17.196 14.439 32.294 22.977 32.294 22.977 1.9252 1.227 3.858 2.4436 5.7952 3.6534 4.8078 2.9998 9.6707 6.0112 14.286 9.4506v1e-5c3.788 2.814 7.437 5.9974 10.346 9.8873 0.6747 0.9045 1.3533 1.8297 2.0149 2.7794 3.8486 5.5252 5.3805 9.1518 5.9803 12.244-0.3397 3.4544-0.7419 4.4327-2.0144 3.9645-0.063-0.0236-0.055-0.0214-0.048-0.0186 0.01 3e-3 0.014 5e-3 -0.048-0.0188-1.2654-0.51388-1.5124-1.4988-1.3776-3.7619-0.3783-2.4574-1.2075-5.5835-4.912-10.779-0.6353-0.89112-1.2912-1.7761-1.9466-2.6589-2.638-3.5633-6.0873-6.5468-9.7465-9.2875-4.4763-3.3415-9.2725-6.3073-14.085-9.3137-1.9435-1.2129-3.8842-2.434-5.8189-3.6667 0 0-15.068-8.7266-32.349-23.527-4.4213-3.7882-10.055-8.3296-14.78-12.744-1.4556-1.3557-2.9306-2.8029-4.21-4.4695v-1e-5c-0.8825-1.1225-1.6928-2.4602-2.0517-4.0402v-2e-5c-0.2796-1.3796-0.076-2.7912 0.5066-4.017v-2e-5c0.7447-1.5381 1.8454-2.7682 2.9613-3.8229v-1e-5c3.8933-3.7341 8.5026-6.659 12.652-9.5161 7.4301-5.128 13.321-9.1408 19.276-13.902 7.3673-5.8967 11.763-10.595 14.939-14.978 1.5547-2.1442 2.5761-3.9417 3.0519-4.8092 2.0509-3.7388 2.3759-5.5424 2.3761-5.5434 0.087-0.35547 0.2137-0.79827 0.5371-1.926 0.2388-0.83303 0.9387-3.235 1.3604-6.116 0.3568-2.3934 0.6496-5.7583 0.3486-10.054-0.253-3.6123-0.9501-8.2201-2.6354-13.932-2.0403-6.8063-4.9478-16.586-11.042-23.452-1.5911-1.7655-3.463-3.4296-5.6705-3.962-0.8687-0.22189-1.7912-0.26354-2.6699-0.093-0.9333 0.17393-1.8413 0.59173-2.6771 1.1468-2.2939 1.5113-3.9477 3.9465-5.3852 6.516-2.1582 3.9024-3.6391 8.1789-4.8801 12.492-4.4793 15.59-5.7786 32.263-6.5202 43.591-0.6715 10.295-1.5209 17.912-1.6133 18.805-0.1038 1.0032-1.0522 11.686-2.9988 23.767-2.1588 13.399-5.2313 27.043-9.6315 40.596-2.8978 8.924-5.6642 15.543-8.1282 20.694-1.3347 2.7903-2.3556 4.6553-2.8551 5.5524-0.1922 0.34496-0.2952 0.52412-0.2952 0.52412-0.3908 0.66839-0.7901 1.3206-1.1916 1.9551-0.1368-0.16544-0.2546-0.37816-0.3407-0.63258v-1e-5c-0.021-0.0622-0.041-0.12669-0.053-0.19343-0.01-0.0354-0.01-0.0706-0.01-0.11349-1.2512-0.33321-1.7817-0.63564-1.5999-0.85763-0.036 0.0269-0.03 0.0179 0.024-0.0202 0.4357-0.33992 0.8829-0.79396 1.3676-1.2576 1.8985-1.8294 3.656-3.5998 5.2752-5.1834 2.3242-2.273 4.2918-4.1399 5.8243-5.4939 0.8671-0.76613 1.5799-1.3547 2.1088-1.7354 0.2762-0.19883 0.5023-0.34092 0.6738-0.42191 0.087-0.0413 0.1605-0.0667 0.219-0.0757 0.03-5e-3 0.055-5e-3 0.077-1e-3 0.023 4e-3 0.042 0.0127 0.056 0.0263 0.015 0.0136 0.024 0.0315 0.03 0.0542 0.01 0.0216 0.01 0.0473 0 0.0771 0 0.059-0.025 0.13395-0.059 0.22414v1e-5c-0.068 0.17712-0.1935 0.41307-0.3721 0.70316-0.342 0.55522-0.8794 1.3087-1.5864 2.2264-1.2315 1.5986-3.0064 3.733-5.1487 6.1551-1.4653 1.6571-3.2235 3.6029-5.0839 5.4879-0.4438 0.45414-0.9501 0.97928-1.5602 1.482-0.062 0.0553-0.1731 0.13878-0.3365 0.24332v1e-5c0.124-0.18687-0.4719-0.4336-1.7866-0.79055-0.014-0.0492-0.024-0.10446-0.031-0.15795-0.013-0.10081-0.021-0.19816-0.029-0.29222v-1e-5c-0.036-0.38439-0.079-0.71633-0.1418-1.0001 0.3818-0.61865 0.7628-1.2488 1.1364-1.8878zm5.946-102.06c-0.073 0.1579-3.4144-1.4458-9.5162-1.4891-5.2899-0.0327-10.14 0.57958-17.91 1.7782-9.0791 1.4049-18.683 3.0702-29.96 5.2139-15.803 3.004-30.085 5.9858-40.451 8.0215s-16.808 3.1554-16.856 2.9257c-0.0476-0.22972 6.3052-1.7651 16.607-4.1019 9.6287-2.1841 25.228-5.6349 40.383-8.5152 11.185-2.1257 21.055-3.7482 30.068-4.9789 7.7106-1.0563 12.87-1.5439 18.146-1.2848 6.3981 0.30761 9.5511 2.2992 9.49 2.4306zm-279.9 83.693c0.0487 1.7992 0.22069 3.5088 0.94816 4.8456 0.4686 0.8806 1.2198 1.6348 2.0565 1.8568 0.943 0.34333 2.1505 0.17862 3.3867-0.12224 1.5658-0.41729 3.0845-1.1946 4.5721-2.1064 3.5532-2.1958 6.6627-5.1412 9.3156-8.4542 2.3952-3.0629 4.5371-6.3262 5.0961-9.8461 0.57179-3.3556 0.9875-6.7059 0.95422-10.019-0.0137-1.0383-0.0525-2.0263-0.22479-2.938-0.20161-0.59684-0.16293-0.9595-0.19936-0.82801v1e-5c0.10297 0.18234 0.39107 0.26293 0.9036 0.30934 0.42533-0.13864 0.59891-0.17261 0.52184-0.19982-0.26046 0.18562-0.42008 0.76031-0.74206 1.4849-1.2347 3.2264-1.7728 6.792-2.3434 10.429-0.69107 4.5417-0.98493 9.1251-0.39945 13.571v1e-5c0.46901 3.2395 1.2263 6.4345 3.1453 8.6237 0.71507 0.83573 1.5842 1.5224 2.5357 1.8762 0.0713 0.0287 0.14346 0.0557 0.21653 0.0811 0.93687 0.33419 2.0234 0.3881 3.1025 0.25155 3.7-0.43003 7.0745-2.9863 10.274-5.6778 1.8889-1.6258 3.576-3.5464 5.2143-5.5535 2.1381-2.6262 4.1179-5.3994 6.015-8.2427 4.713-7.0652 8.8733-14.512 12.658-22.151 4.1557-8.3918 7.8369-17.021 10.839-25.886 2.7648-8.1719 5.0188-16.536 5.9089-25.074 0.73814-7.0477 0.47912-14.204-0.55755-21.242-0.45369-3.0742-1.0612-6.1235-1.9143-9.1013-0.27098-0.94226-0.5603-1.8782-0.88577-2.7963-0.49141-1.3268-1.0582-2.6137-1.7536-3.823-0.4235-0.73409-0.88294-1.4303-1.4364-2.015-0.41801-0.43068-0.85605-0.80833-1.3374-0.97386-0.36854-0.13603-0.79411-0.14317-1.1409-2e-3v1e-5c-0.47702 0.16693-0.89266 0.58734-1.2839 1.06-1.4466 1.7983-2.1006 4.1859-2.7499 6.5698v1e-5c-1.1504 4.3318-1.7714 8.8055-2.2747 13.301-1.294 11.595-2.6026 23.185-3.7535 34.786-1.1732 11.826-2.2133 23.66-2.8027 35.506v1e-5c-0.47331 9.5752-0.80774 19.147 0.14274 28.569 0.32605 3.1705 0.75065 6.2846 1.7387 9.152 0.35237 1.012 0.74665 1.9606 1.281 2.7553 0.41777 0.59756 0.85117 1.1114 1.3386 1.3619h1e-5c0.37656 0.20083 0.78496 0.32011 1.1026 0.25936 0.36751-0.0169 0.79755-0.26059 1.2514-0.56981 1.368-0.95851 2.3346-2.6236 3.3329-4.385 0.40162-0.73754 0.77675-1.4928 1.131-2.2623 0 0 0.92222-1.848 2.2046-5.318 0.8874-2.4083 1.8464-5.3293 2.8718-9.0623 0.73727-2.6854 1.476-5.6765 2.1482-8.9293 0.46811-2.2687 0.92698-4.7124 1.2316-7.1847 0.0988-0.80733 0.18532-1.6129 0.21527-2.3996v-1e-5c2e-3 -0.51245 0.0433-0.90017-0.0314-1.1177v-1e-5c-0.10829-0.0689 0.0259 0.0602 0.3492 0.4509 0.7234 0.27423 1.161 0.30878 1.3706 0.0557l2e-5 -2e-5c0.1327-0.13711 0.15502-0.11819 0.0507-0.013-0.10409 0.15067-0.20429 0.34929-0.32092 0.58367-1.1562 2.2974-1.2646 5.1664-0.80865 8.0577 0.5242 3.1482 1.7898 6.2392 3.6338 9.0232 1.8314 2.7431 4.2187 5.1631 7.0971 6.703 2.8695 1.5469 6.2671 2.1089 9.4164 1.4912 4.0245-0.782 7.875-1.8101 11.525-3.1843 3.88-1.468 7.3475-3.2095 10.226-5.5668 2.8634-2.3596 4.8787-5.2027 5.5624-8.2283 1.0665-4.374-0.67403-8.8836-2.089-11.662-0.17956-0.34251-0.35694-0.66985-0.53468-0.9852-1.0541-1.8702-2.3109-3.6626-3.9751-4.9463-1.2742-0.98358-2.8541-1.656-4.4222-1.5955-1.5318 0.0216-3.0729 0.68009-4.4876 1.6029-1.6625 1.0986-3.1086 2.5766-4.4508 4.2286-3.0102 3.7176-5.3024 8.142-7.0969 13.012-1.4741 4.0553-2.7583 8.4937-2.581 12.903 0.12972 3.454 0.70406 7.0072 2.0259 10.308 1.1829 2.9206 2.9962 5.742 5.6004 7.5014 2.6976 1.8917 6.3138 2.4746 9.8717 2.0418 5.4186-0.66426 10.546-3.2693 15.667-6.4939 0.95408-0.60169 1.8792-1.2558 2.777-1.9587 4.8135-3.7687 8.972-9.0302 12.784-15.729 4.2294-7.4687 7.4534-15.8 10.162-25.095 2.3914-8.2192 4.202-16.702 5.508-25.384v-1e-5c0.9383-6.2523 1.6639-12.387 1.768-18.509 0.0577-3.5354 0.0838-6.9197-0.35346-10.238-0.13797-0.94062-0.23002-1.7905-0.55602-2.4484-0.1196-0.16089-0.11867-0.24982-0.0552-0.15279h1e-5c0.242 0.0748 0.36645 0.0934 0.4698 0.0189h1e-5c-0.0382-0.0168-0.11409 0.1357-0.28545 0.349l-1e-5 1e-5c-0.23278 0.34855-0.42529 0.76346-0.62075 1.2082-0.67435 1.5521-1.1618 3.2242-1.6265 4.8774-1.961 7.0053-3.341 14.469-4.4568 20.489-1.8039 9.7408-2.9429 16.567-3.8154 22.326-0.18132 1.1969-0.39909 2.677-0.63301 4.3544-0.67187 4.8204-1.8212 13.422-2.1459 22.031 1e-5 0 0 1e-5 0 1e-5 -0.17236 4.7172-0.28718 10.29 0.97489 15.478 0.40088 1.63 0.93669 3.2638 1.8548 4.6296 0.68779 1.0163 1.6158 1.9033 2.723 2.2979 0.47385 0.18381 1.0346 0.20155 1.585 0.10513h1e-5c0.66744-0.11688 1.3275-0.41957 1.9769-0.79589l1e-5 -1e-5c1.7995-1.0493 3.3051-2.6213 4.7623-4.3224 4.24-4.9802 7.4317-10.834 10.361-17.038 3.5213-7.4714 6.325-15.218 8.3529-23.106 2.0372-7.9439 3.2504-15.605 2.9343-23.108-0.252-6.0233-0.50828-11.248-1.457-16.467-0.28578-1.5346-0.56274-2.9401-1.1418-4.1762-0.18364-0.37276-0.34506-0.68951-0.55409-0.87861v-1e-5c-0.13019-0.095-0.21986-0.17967-0.22772-0.14305-0.0325-0.0392-0.16367 0.0658-0.35488 0.17934h-1e-5c-0.29571 0.21988-0.55458 0.56944-0.82612 0.95269-0.95255 1.3805-1.6186 3.0383-2.2254 4.5668-3.07 7.8011-5.8736 19.782-5.8808 19.811-0.0385 0.15365-0.0747 0.29786-0.11323 0.45151-2.1931 8.7419-4.1262 17.603-5.6646 26.22-2.2066 12.369-2.7348 19.161-2.9592 22.989-0.0281 0.48084-0.0407 0.73565-0.0407 0.73565-0.2103 2.7227-0.32953 5.4326-0.24471 8.1175 0.0773 2.2189 0.24476 4.3799 0.80405 6.3745 0.42925 1.3524 0.87016 2.6018 1.6897 3.2058 0.28449 0.23943 0.62507 0.41736 0.96417 0.48824 0.38704 0.10106 0.86662 0.0659 1.3769-0.0283 2.4656-0.50939 4.8116-1.654 6.741-3.2778 1.7005-1.4213 3.1158-3.2213 4.2749-5.1906 0.93423-1.593 1.6932-3.3038 2.3101-5.0758h1e-5c0.20624-0.59343 0.39592-1.1973 0.57398-1.8092 0.0754-0.26816 0.16364-0.63955 0.32586-1.0938 0.40695-1.1069 0.8206-2.2294 1.2748-3.354 0.23165-0.59158 0.50626-1.2779 0.92874-1.9989 0.0641-0.15929 0.26889-0.43496 0.64698-0.7878 0.26588-0.38698 0.93963-0.489 1.9809-0.24886 0.69189 0.51223 0.99592 0.88695 0.94861 1.0594 0.13237 0.33068 0.20513 0.59924 0.24205 0.7951 0.14749 0.67365 0.22971 1.3014 0.30788 1.8707 0.1202 0.85402 0.23624 1.6961 0.36766 2.5232 3e-3 0.0167 5e-3 0.0334 8e-3 0.0501 0.36299 2.2681 0.82844 4.4469 1.4611 6.5338 0.82555 2.722 1.9058 5.2491 3.2561 7.5239 1.6812 2.8364 3.7599 5.2407 6.0288 7.1579 3.1734 2.6916 6.7628 4.4594 9.9565 5.6154 8.9356 3.236 15.248 2.9544 15.244 3.4092 0 0.45477-6.2932 1.6285-15.963-1.2045-3.4714-1.018-7.4208-2.7458-11.047-5.6035-2.5833-2.0431-4.9593-4.6456-6.8831-7.7612-1.5377-2.4933-2.7636-5.2466-3.6771-8.1904-0.7011-2.2586-1.2106-4.5849-1.5896-6.968-3e-3 -0.0175-6e-3 -0.0351-8e-3 -0.0526-0.13805-0.87071-0.25692-1.7317-0.37617-2.58-0.0859-0.59702-0.15268-1.1398-0.26157-1.6157-0.0406-0.15172-0.0526-0.23135-0.0598-0.22831-0.12727-0.0153 0.082 0.1553 0.59132 0.57639 0.89633 0.16775 1.3946 0.13811 1.5352-0.14612 0.13798-0.15597 0.17547-0.16087 0.0798-0.0539h-1e-5c-0.24704 0.39456-0.44608 0.92916-0.70198 1.5439-0.42934 1.0615-0.83067 2.1521-1.2378 3.2582-0.0745 0.18918-0.13919 0.48902-0.25527 0.87922-0.19088 0.65665-0.39744 1.3135-0.62462 1.968-0.67429 1.9457-1.5218 3.8485-2.5757 5.6519-1.3041 2.2386-2.9574 4.3208-4.989 6.0373-2.3462 1.9709-5.1698 3.3473-8.1734 3.973-0.84641 0.18743-1.7831 0.21909-2.7482 0.0177-0.88274-0.20243-1.6881-0.61162-2.3584-1.182-1.5433-1.4-2.3282-3.1884-2.7218-4.8229-0.64937-2.3927-0.8553-4.808-0.91933-7.1376-0.087-2.8467 0.0348-5.674 0.25232-8.47 0 0 0.0261-0.26087 0.079-0.75129 0.44168-4.1059 1.2558-10.602 3.9021-23.162 1.859-8.8294 3.9014-17.25 6.1531-26.225-5e-3 0.0217 0.11934-0.47428 0.1139-0.45257 0.0143-0.0567 2.824-11.979 6.007-20.015 0.60783-1.5479 1.3354-3.3133 2.4253-4.9095 0.29929-0.44869 0.67999-0.92641 1.197-1.3403l1e-5 -1e-5c0.33232-0.29471 0.83456-0.52318 1.4748-0.54603 0.61217 0.0517 1.0993 0.30492 1.4146 0.65236l1e-5 1e-5c0.42889 0.4445 0.70937 0.933 0.90678 1.3907 0.67093 1.4882 0.98973 3.0382 1.2598 4.5968 0.95356 5.3666 1.2046 10.676 1.4347 16.705 0.2932 7.7291-0.95723 15.551-3.0488 23.579-2.0748 7.9834-4.9315 15.816-8.5113 23.367-2.9597 6.2549-6.2396 12.218-10.615 17.354-1.4881 1.7573-3.1272 3.435-5.1531 4.6353h-2e-5c-0.74037 0.44097-1.5649 0.80311-2.4674 0.97445l-1e-5 1e-5c-0.77438 0.14678-1.5992 0.1041-2.3761-0.17746-1.4739-0.5658-2.6383-1.6457-3.4414-2.8749-1.0488-1.5967-1.649-3.3867-2.0551-5.1055-1.3-5.4441-1.1895-11.136-1.0028-15.88v-1e-5c0.33123-8.6769 1.4787-17.36 2.1308-22.179 0.22793-1.6852 0.44021-3.188 0.61197-4.3883 0.82785-5.7851 1.9074-12.628 3.6288-22.394 1.0626-6.0339 2.387-13.55 4.3181-20.687 0.45115-1.6743 0.95195-3.4298 1.6712-5.137 0.20313-0.48747 0.44395-1.0021 0.76738-1.5095 0.15771-0.29307 0.44816-0.65425 0.93335-0.97712l2e-5 -1e-5c0.4226-0.26118 0.96167-0.28061 1.5226-0.0167l2e-5 2e-5c0.48569 0.3468 0.74467 0.71696 0.83492 1.0011 0.47532 1.0388 0.63395 2.0845 0.74968 3.0234 0.48226 3.4946 0.49008 6.9833 0.45333 10.532-0.0611 6.2622-0.74792 12.5-1.652 18.803v1e-5c-1.2564 8.78-3.033 17.376-5.4087 25.722-2.6814 9.4331-5.9445 17.964-10.265 25.669-3.8646 6.9241-8.2682 12.457-13.412 16.487-0.96084 0.75284-1.9531 1.4575-2.9781 2.1104-5.2375 3.3422-10.74 6.0517-16.719 6.8075-4.0471 0.51483-8.23-0.24536-11.548-2.5205-3.0862-2.1825-5.1493-5.3778-6.3944-8.6274-1.4054-3.6298-1.9943-7.4394-2.0866-11.09-0.1131-4.8833 1.2648-9.5669 2.8461-13.704 1.8918-5.0142 4.3431-9.6092 7.5457-13.512 1.4264-1.7439 3.0317-3.341 4.9158-4.582 1.6114-1.0735 3.4927-1.8226 5.4902-1.8826 2.1017-0.0244 4.0693 0.79103 5.6026 2.0123 1.9202 1.5315 3.3277 3.5045 4.4403 5.4951 0.18749 0.33543 0.37276 0.6823 0.5573 1.0426 1.554 2.9521 3.4223 7.8034 2.3091 12.927-0.81751 3.5151-3.0179 6.7601-6.1469 9.3356-3.0901 2.5583-6.7358 4.4546-10.736 5.9997-3.7661 1.4612-7.7227 2.5672-11.837 3.4129-3.6811 0.74842-7.596 0.16139-10.961-1.6003-3.3033-1.7409-6.0146-4.3917-8.0535-7.3981-2.0683-3.0276-3.5067-6.4305-4.1486-9.9615-0.61474-3.2413-0.46722-6.6547 0.91919-9.6847v-1e-5c0.12851-0.27925 0.28558-0.58644 0.49122-0.90907v-1e-5c0.0726-0.16686 0.29145-0.43488 0.69142-0.75387l3e-5 -3e-5c0.35082-0.34976 0.98552-0.3593 1.8451 0.018 0.51062 0.53253 0.71347 0.90938 0.66283 1.0676v1e-5c0.17256 0.75949 0.1646 1.4018 0.13422 1.8843v1e-5c-0.0247 0.91059-0.10588 1.7944-0.19939 2.6359-0.28603 2.5915-0.72362 5.115-1.1701 7.4286-0.64147 3.3293-1.3537 6.392-2.0687 9.1433-0.99268 3.8222-1.9407 6.8487-2.823 9.353-1.268 3.6099-2.2428 5.6249-2.2428 5.6249-0.39213 0.82132-0.80934 1.6346-1.2571 2.4362-1.0113 1.8802-2.3104 3.8779-4.3058 5.3662-0.73425 0.55506-1.6705 0.9826-2.7638 1.123-1.0982 0.0917-2.1333-0.17242-2.9868-0.68912-1.0337-0.63688-1.7986-1.484-2.3401-2.3633-0.71169-1.1235-1.2022-2.3073-1.5732-3.4653v-1e-5c-1.0508-3.2491-1.4776-6.5839-1.7526-9.8327-0.83931-9.6922-0.37954-19.385 0.22842-28.977 0.75009-11.9 1.9493-23.753 3.2804-35.578 1.3059-11.602 2.7679-23.18 4.2145-34.756v-1e-5c0.56267-4.517 1.2578-9.0559 2.4919-13.48 0.65303-2.3984 1.4257-4.9429 3.0818-7.0099 0.45262-0.57859 1.0566-1.1235 1.8409-1.4322h1e-5c0.66253-0.23941 1.3814-0.22359 2.0215 0.0226 0.73464 0.29532 1.3202 0.78346 1.7864 1.3064 0.63389 0.69592 1.1378 1.4729 1.5726 2.2597 0.71622 1.2918 1.2921 2.6431 1.7823 4.0182 0.35023 0.94198 0.66024 1.8963 0.94734 2.8507 0.91345 3.0263 1.5772 6.12 2.0811 9.2306 1.1548 7.1164 1.5225 14.387 0.87392 21.595-0.78849 8.7187-2.9483 17.25-5.6278 25.539-2.9066 9.0024-6.4992 17.775-10.574 26.307-3.7071 7.7651-7.8122 15.365-12.5 22.62h-1e-5c-1.8868 2.9202-3.8779 5.7936-6.0524 8.5467v1e-5c-1.6503 2.0949-3.4264 4.1637-5.4899 6.0048 0 1e-5 0 1e-5 -1e-5 1e-5 -3.2097 2.9309-7.0653 5.784-11.803 6.5766-1.4922 0.23602-3.0757 0.15567-4.5972-0.33757-0.11807-0.039-0.23574-0.0806-0.35292-0.12462-1.5396-0.60865-2.8476-1.6086-3.8522-2.8159-2.4706-3.0258-3.4737-6.7795-3.8826-10.3-0.62335-4.8618-0.32591-9.7498 0.41019-14.485 0.5491-3.6408 1.1448-7.4253 2.5161-11.085 0.23044-0.7352 0.63085-1.6862 1.4644-2.6138h1e-5c0.18949-0.29848 0.68675-0.58399 1.4907-0.75864 0.8311 0.0161 1.4285 0.26464 1.7529 0.67798 0.79157 0.99517 1.0367 1.9127 1.0509 2.4928 0.21618 1.2067 0.27275 2.3808 0.27801 3.4961 0.0276 3.5983-0.4037 7.1415-1.001 10.598-0.79554 4.3732-3.1588 8.1297-5.76 11.326v1e-5c-2.835 3.5614-6.2207 6.752-10.144 9.1899-1.6405 1.0268-3.4451 1.9286-5.4298 2.4798-1.5703 0.46466-3.3891 0.61746-5.2206 0.0865-1.7951-0.60727-3.1856-1.9016-3.9746-3.4771-1.0116-2.0597-1.3069-4.2466-1.3179-6.2774-8.8e-4 -0.16281 9e-5 -0.32446 3e-3 -0.48479 0.0179-4.7666 1.2501-9.2966 2.6672-13.265 1.842-5.2342 4.2053-9.766 7.0675-13.578l1e-5 -1e-5c1.4814-1.9773 3.0696-3.6779 4.8237-5.0691 1.7498-1.3979 3.6176-2.3721 5.5363-2.8445 2.24-0.53826 4.3305-0.24077 5.9349 0.38362 4.385 1.7428 5.5647 4.3756 5.354 4.5772-0.21072 0.20156-1.9698-2.0328-5.862-3.0579-1.3889-0.37653-3.125-0.45397-4.8713 0.10876-1.5425 0.48366-3.0319 1.4149-4.5253 2.7156-1.4934 1.311-2.8426 2.9108-4.1588 4.8007v1e-5c-2.5446 3.6613-4.6314 7.9694-6.322 12.99-1.2748 3.8454-2.4086 8.0542-2.3908 12.239 3e-3 0.14494 6e-3 0.28964 0.01 0.43387zm-89.171-39.83c3.9915-5.2517 7.739-10.685 11.199-16.304 4.5407-7.3764 8.5735-15.075 11.549-23.179 2.4607-6.7185 4.2546-13.732 4.2993-20.824 0.0416-5.9962-0.64242-12.012-2.2578-17.78-0.64244-2.2893-1.4243-4.5332-2.5009-6.6209v-1e-5c-0.79578-1.5218-1.6886-2.9902-2.9618-3.9863-0.35009-0.2733-0.72135-0.5083-1.1086-0.65908-0.12039-0.0453-0.24215-0.0826-0.36508-0.11028-0.46414-0.11105-0.96608-0.088-1.4172 0.065-1.3331 0.40373-2.2707 1.7602-3.0936 3.1193-1.4463 2.4934-2.3022 5.3218-3.0464 8.18 0 1e-5 0 2e-5 -1e-5 3e-5 -1.1853 4.5792-1.9223 9.2759-2.5099 13.995-1.9803 15.926-3.75 31.881-5.6208 47.83 0 1e-5 0 2e-5 -1e-5 3e-5 -1.4218 12.12-3.1508 24.204-5.17 36.24v2e-5c-0.95832 5.7749-1.7138 11.627-0.80489 17.263 0 1e-5 1e-5 2e-5 1e-5 3e-5 0.27399 1.6618 0.67469 3.2795 1.4776 4.6299 0.56607 0.93512 1.3204 1.7546 2.2332 2.0943 0.87911 0.37617 1.9652 0.31479 2.9986 0.0453 1.4107-0.37958 2.7326-1.1822 3.9977-2.1037 1e-5 -1e-5 2e-5 -1e-5 3e-5 -2e-5 3.921-2.876 6.9838-6.8602 9.8136-10.978 6.5001-9.5001 11.724-19.851 16.164-30.508 0-1e-5 1e-5 -2e-5 1e-5 -3e-5 1.3184-3.1684 2.5851-6.3426 3.6241-9.5736 0.12716-0.39599 0.24811-0.78232 0.34984-1.1623 0.27422-0.0707 0.55085-0.0156 0.75506 0.15898 0.22106-0.0691 0.41427-0.12436 0.57246-0.16327 0.0782-0.0192 0.14441-0.0338 0.20315-0.035 0.28569-6e-3 0.43369 0.11253 0.41594 0.30197v6e-5c-0.0861 0.12615-0.16702 0.33459-0.2887 0.59828-0.6652 1.5028-1.3436 2.9905-1.9994 4.4787v1e-5c-1.2104 2.7468-2.3887 5.507-3.5296 8.2818-3.0418 7.4001-5.8518 14.888-8.1204 22.528v3e-5c-1.1259 3.7932-2.1192 7.6138-2.8173 11.475-0.58253 3.248-0.99925 6.4997-0.82725 9.6936 0.16141 2.3523 0.51852 4.6869 1.7991 6.3025 0.50487 0.66831 1.1699 1.22 1.914 1.5594 0.85256 0.40696 1.8686 0.55476 2.9112 0.56184 4.6916 5e-3 9.3361-1.8832 13.014-4.8874 0-1e-5 1e-5 -2e-5 2e-5 -2e-5 4.023-3.2756 7.0844-7.6916 9.6602-12.357 0-1e-5 1e-5 -2e-5 1e-5 -3e-5 5.3808-9.778 8.5181-20.703 11.518-31.642 1.0582-3.8722 2.0905-7.7649 3.2031-11.649 0.37035-1.2936 0.75271-2.5985 1.1838-3.9024 0.26737-0.82077 0.56673-1.7004 0.99975-2.5898 0.1136-0.2503 0.28969-0.56266 0.56084-0.90913 1e-5 -2e-5 2e-5 -3e-5 3e-5 -5e-5 0.054-0.23559 0.48289-0.52174 1.3006-0.75548 0.94514 0.1 1.4944 0.39085 1.6252 0.779 2e-5 3e-5 3e-5 7e-5 4e-5 1e-4 0.27699 0.43626 0.4133 0.79211 0.45991 1.0302 0.27391 0.98395 0.37319 1.916 0.45048 2.7535 0.1491 1.4809 0.23198 2.9498 0.3017 4.4008 0.228 4.826-0.21132 9.6029-0.75803 14.287-0.81686 7.0514-2.0147 14.038-3.3538 20.975-3.979 20.618-9.2283 40.954-14.874 61.137-2.6333 9.4288-5.8069 18.788-10.177 27.654 0 1e-5 -1e-5 1e-5 -1e-5 2e-5 -3.2996 6.7283-7.3672 13.318-13.014 18.579-4.4318 4.141-10.13 7.1879-16.38 7.741-6.8688 0.50626-13.515-1.8664-19.146-5.302-9.3924-5.6387-17.417-13.697-22.731-23.315-1.2545-2.2707-2.3137-4.5738-3.1859-6.8851-3.6162-9.4754-3.4104-18.107-1.838-24.13 1.5323-5.87 3.9861-8.7458 4.414-8.5105 0.42787 0.23534-1.159 3.4372-1.9127 9.0086-0.77788 5.7506-0.40201 13.485 2.9966 22.226h1e-5c0.83933 2.1337 1.8359 4.2659 2.9991 6.3829 4.9049 8.9794 12.426 16.59 21.234 21.955 5.2215 3.1253 11.102 5.3522 16.874 4.8535 5.2064-0.35751 10.186-3.0556 14.204-6.7049 5.2088-4.7487 9.0487-10.974 12.314-17.472 0 0 0-1e-5 1e-5 -2e-5 4.2807-8.5618 7.4222-17.707 10.074-27.003 5.728-20.112 11.053-40.334 15.103-60.807 1.3626-6.889 2.5816-13.793 3.4176-20.732 0.55458-4.6376 1.0106-9.2494 0.80746-13.8-0.063-1.436-0.13532-2.8542-0.27005-4.2493-0.0885-0.84244-0.15103-1.6034-0.34082-2.2423-0.0719-0.17668-0.0678-0.24133-0.0391-0.15736v3e-5c-6e-3 0.19504 0.33645 0.30797 1.0473 0.43279 2e-5 0 5e-5 1e-5 8e-5 1e-5 0.54138-0.20497 0.75662-0.26608 0.63331-0.28649-0.0421 0.0342-0.0998 0.16129-0.20515 0.35295-0.33008 0.65091-0.58286 1.4067-0.85928 2.2168-0.41667 1.2386-0.79368 2.5048-1.1676 3.7859-1.1207 3.8423-2.1685 7.7192-3.249 11.6-3.04 10.955-6.3129 22.067-11.908 32.173-2.6679 4.8339-5.9645 9.4891-10.353 13.068-4.1016 3.3354-9.2896 5.3872-14.634 5.392-1.3102 7e-3 -2.6749-0.22399-3.9556-0.80974-1.131-0.53314-2.1038-1.3415-2.8389-2.3284-1.6663-2.3184-2.1712-5.1014-2.2523-7.6579-0.15799-3.4829 0.28696-6.9156 0.91112-10.242 0.74007-3.9748 1.7718-7.8736 2.9329-11.712 2.3379-7.7325 5.2091-15.278 8.3051-22.705 0 0 1e-5 -1e-5 1e-5 -2e-5 1.1616-2.7875 2.3602-5.5587 3.5906-8.315 0-1e-5 1e-5 -2e-5 1e-5 -2e-5 0.67043-1.5019 1.3564-2.9872 2.0222-4.4723 1e-5 -1e-5 1e-5 -2e-5 1e-5 -3e-5 0.10113-0.23649 0.23283-0.53671 0.44055-0.87297 0.0303 0.11409 0.21828 0.13048 0.59167 0.10281 9e-5 -1e-5 1.7e-4 -1e-5 2.5e-4 -2e-5 0.0767-6e-3 0.15956-5e-3 0.24411-7e-3 0.17127-4e-3 0.36344-0.0207 0.58365-0.0526 0.18991 0.59719 0.32958 1.0606 0.49374 1.3976-0.11923 0.43459-0.25198 0.85353-0.38529 1.2603-1.0859 3.3173-2.3879 6.5396-3.7309 9.7203l-2e-5 2e-5c-4.5257 10.731-9.8659 21.177-16.504 30.787-2.8737 4.1785-6.1036 8.299-10.301 11.378-1e-5 1e-5 -2e-5 2e-5 -3e-5 2e-5 -1.3555 1.0009-2.8815 1.8932-4.6058 2.3722-1.308 0.37171-2.7795 0.40394-4.1516-0.12898-1.3809-0.58658-2.4222-1.6636-3.0992-2.8668-0.94469-1.6557-1.4094-3.48-1.6729-5.2534 0-1e-5 0-2e-5 -1e-5 -3e-5 -0.90803-5.9753-0.12235-12.004 0.89146-17.815v-3e-5c2.072-12 3.8547-24.049 5.3311-36.137v-3e-5c1.946-15.933 3.7921-31.883 5.8496-47.811 0-1e-5 1e-5 -2e-5 1e-5 -3e-5 0.61186-4.7434 1.3816-9.4894 2.6069-14.139 0.75743-2.8904 1.6682-5.8137 3.2065-8.4582 1e-5 0 1e-5 -1e-5 2e-5 -2e-5 0.81615-1.4627 1.9724-2.9853 3.7358-3.6139 0.65748-0.21661 1.3666-0.24552 2.0388-0.0837 0.17097 0.0429 0.3373 0.0956 0.49881 0.15698 0.5233 0.19378 0.99801 0.47747 1.4169 0.80541 1.4842 1.1597 2.508 2.7439 3.3369 4.3219 1.157 2.1739 2.004 4.4869 2.6917 6.8214v1e-5c1.7355 5.8805 2.5271 12.021 2.5687 18.146 0.0447 7.3492-1.6799 14.591-4.1017 21.464v1e-5c-2.9176 8.2993-6.8992 16.184-11.392 23.713-3.4206 5.7339-7.1338 11.286-11.096 16.657-4.6475 6.3008-10.368 13.116-16.64 19.517-5.8303 5.9497-10.817 10.164-11.198 9.7668-0.38024-0.39752 4.1091-5.0915 9.6076-11.254 6.2301-6.9824 11.222-13.018 16.191-19.557zm-65.684-70.484s2.5579-3.3789 3.2765-9.8159c0.39495-3.4063 0.0126-7.7681-2.1328-12.021-1.8341-3.6664-4.8476-7.0513-8.8183-9.8682-4.2049-2.9783-9.2041-5.1149-14.698-6.5129-6.2956-1.5986-12.912-2.1147-19.562-1.8274h-1e-5c-20.867 0.89558-38.876 9.5034-49.335 15.463-2.1957 1.2533-3.9278 2.3124-5.3912 3.2609-1.5118 0.97994-3.6746 2.4482-5.9249 4.2701-2.0472 1.6627-4.5994 3.9081-6.4274 6.6774-1.0747 1.646-2.014 3.6412-2.0074 5.6972-0.0264 1.7015 0.64845 3.4578 1.7705 4.9823 1.3601 1.846 3.2615 3.3216 5.4128 4.6807 2.7003 1.6943 5.6612 3.0476 8.8441 4.2974 8.3436 3.2728 17.118 5.4143 26.417 7.3892 4.8399 1.0263 9.8193 1.9861 14.584 2.9361 4.0388 0.80463 7.8843 1.5775 11.736 2.6004 2.8372 0.74242 5.6138 1.5665 8.188 3.0437h1e-5c0.92625 0.52535 1.8311 1.1923 2.593 2.0774 0.6592 0.76886 1.1224 1.7234 1.2882 2.7796 0.14775 1.1693-0.0571 2.2727-0.43447 3.2121-0.51393 1.3124-1.2561 2.4413-2.0156 3.4119l-1e-5 1e-5c-2.6668 3.4359-6.0961 6.2101-8.7163 8.2846-7.8688 6.2605-13.217 9.5444-13.217 9.5444s-0.88553 0.58502-2.5304 1.6524c-4.8941 3.1772-11.624 7.44-23.807 14.725-10.074 6.0235-20.4 11.635-33.37 18.467-4.2964 2.2634-8.78 4.6078-13.142 7.0091l-1e-5 1e-5c-3.3093 1.823-6.6057 3.6793-9.7143 5.7794-1e-5 0-1e-5 1e-5 -2e-5 1e-5 -2.054 1.4062-4.0586 2.784-5.412 4.612l-1e-5 1e-5c-0.41467 0.57596-0.76162 1.1414-0.85053 1.6974-0.0872 0.42644-0.0173 0.90475 0.18766 1.2906 0.25889 0.54148 0.79573 1.0079 1.3993 1.4596 0.89374 0.64492 1.9381 1.136 3.0255 1.5868 3.5769 1.4731 7.4505 2.3242 11.222 3.0988 9.7606 1.9964 19.333 2.3717 27.794 2.0629h1e-5c11.094-0.40517 22.678-2.1133 28.224-2.9335 1.8946-0.28059 3.6346-0.54307 4.8468-0.72748 4.4538-0.67754 16.4-2.5779 25.224-3.7433 10.534-1.3913 21.651-2.4991 32.989-2.5904 12.005-0.0943 21.979 0.73855 30.521 2.0814 8.579 1.339 13.985 3.0263 13.985 3.0263 2.0705 0.6493 4.0238 1.3873 5.8689 2.2201 1.9561 0.86928 3.7488 1.8469 5.2823 3.2295 0.53426 0.47027 1.0391 1.0499 1.4245 1.7645 0.32476 0.5697 0.46945 1.2891 0.36148 2.0587-0.1851 0.81021-0.607 1.401-1.085 1.7768-0.68762 0.56098-1.4146 0.87614-2.0398 1.0725-4.2053 1.3661-6.7654 0.69219-6.7959 0.31018-0.0306-0.38199 2.6816-0.50315 6.0633-2.1531h1e-5c0.49054-0.24707 0.98456-0.5166 1.2864-0.85796 0.16578-0.2114 0.30528-0.40703 0.26536-0.51243 0.0283-0.0924-0.0738-0.275-0.19453-0.50893-0.19605-0.33397-0.5418-0.64231-0.96822-1.0013-1.2788-1.0445-2.8429-1.7671-4.7348-2.5751-1.7664-0.74136-3.6246-1.4126-5.6078-2.0324 0 0-5.1156-1.687-13.55-3.1739-8.3632-1.465-18.191-2.4509-30.082-2.5452-11.2-0.0913-22.27 0.85116-32.775 2.1108-9.3542 1.1217-20.203 2.77-25.212 3.5312-2.3816 0.36191-2.4668 0.37597-4.8485 0.73789-5.5284 0.83928-17.191 2.6269-28.381 3.1162h-1e-5c-8.5551 0.37427-18.265 0.0632-28.233-1.8916-3.8004-0.74192-7.7916-1.5951-11.596-3.1154-1.1613-0.46115-2.3434-1.0163-3.4424-1.7824-0.76127-0.51468-1.5087-1.2098-2.033-2.1527-0.42119-0.80078-0.56436-1.7206-0.40299-2.6159 0.20433-1.0033 0.66993-1.8564 1.2066-2.5545l1e-5 -1e-5c1.6295-2.1669 3.791-3.7239 5.8704-5.1328l1e-5 -1e-5c3.1872-2.1877 6.5247-4.1058 9.8331-5.9612l1e-5 -1e-5c4.3698-2.4522 8.8467-4.8404 13.12-7.1368 12.897-6.9315 23.137-12.608 33.094-18.679 12.098-7.3754 18.754-11.673 23.591-14.874 1.6272-1.0771 2.5006-1.6652 2.5006-1.6652s5.3586-3.208 13.139-9.2632c2.6058-2.0384 5.93-4.649 8.351-7.7361l1e-5 -1e-5c0.67716-0.87124 1.307-1.7783 1.6767-2.7369 0.24689-0.66495 0.40947-1.3412 0.3121-1.9238-0.0535-0.51069-0.32141-1.042-0.69954-1.5145-0.46942-0.58832-1.1485-1.0767-1.9176-1.546l-1e-5 -1e-5c-2.2007-1.3243-4.7648-2.0898-7.556-2.8753-3.7452-1.0394-7.5342-1.8411-11.563-2.689-4.7436-0.99761-9.7237-2.0112-14.578-3.0923-9.3188-2.0724-18.182-4.3363-26.649-7.7439-3.2331-1.2998-6.2838-2.7342-9.1007-4.5316-2.2473-1.4248-4.2943-3.0709-5.8346-5.1625-1.3086-1.7754-2.0687-3.8823-2.0505-6.0043 0.06-2.5226 1.1126-4.7863 2.3268-6.5623 2.0153-2.9762 4.68-5.301 6.791-6.9842 2.3172-1.8533 4.5308-3.3465 6.0647-4.3414 1.4897-0.96623 3.2378-2.0437 5.4508-3.3207 10.528-6.0852 28.645-14.975 49.994-16.16l1e-5 -1e-5c6.8097-0.37586 13.635 0.0813 20.202 1.6601 5.7313 1.3749 11.018 3.5706 15.559 6.6886 4.3041 2.9511 7.6286 6.6208 9.7514 10.683 2.4707 4.7637 2.9654 9.6411 2.5698 13.517-0.76466 7.2247-3.4638 10.91-3.4638 10.91-0.73913 1.3707-1.5561 2.6556-2.4132 3.8466-3.5138 4.895-7.6534 8.4035-10.656 10.544-3.0535 2.1768-5.1022 3.1336-5.3106 2.8377-0.20839-0.29586 1.4523-1.7969 4.1061-4.3051 2.5867-2.4448 6.3477-6.1143 9.4986-10.732 0.76829-1.1291 1.5104-2.3286 2.191-3.5872z" stroke="#000"/>
 </g>
 <path d="m361.3 30.952c0.44258-0.17631 1.028 0.07016 1.4944 0.8429 0.46663 0.77304 0.6998 1.9133 0.49902 3.1031-7e-3 0.04279-0.0149 0.0852-0.0231 0.12722-0.10585 1.1577-0.69848 2.2129-1.441 2.8082-0.70726 0.56711-1.376 0.55795-1.6865 0.20565-0.28148-0.31942-0.32708-0.93008-0.3724-1.4127-0.0465-0.49522-0.12069-1.2719 0.0741-2.1236 3e-3 -0.0332 7e-3 -0.06641 0.0105-0.09962 0.0962-0.85968 0.3292-1.6517 0.53509-2.1927 0.20982-0.55142 0.4797-1.0872 0.90975-1.2585z"/>
</svg>
